<mxfile host="app.diagrams.net" modified="2023-04-24T03:31:58.678Z" agent="Mozilla/5.0 (Windows NT 10.0; Win64; x64) AppleWebKit/537.36 (KHTML, like Gecko) Chrome/112.0.0.0 Safari/537.36 Edg/112.0.1722.46" version="21.2.1" etag="tzs7NQQkKh_gJoEKop6b" type="github">
  <diagram name="第 1 页" id="JewmwnUwnXFtzah7HddJ">
    <mxGraphModel>
      <root>
        <mxCell id="0" />
        <mxCell id="1" parent="0" />
      </root>
    </mxGraphModel>
  </diagram>
</mxfile>
